<svg width="52" height="52" viewBox="0 0 52 52" fill="none" xmlns="http://www.w3.org/2000/svg">
<path d="M20.5 35.2386C19.2159 35.2386 18.1222 34.8892 17.2188 34.1903C16.3153 33.4858 15.625 32.4659 15.1477 31.1307C14.6705 29.7898 14.4318 28.1705 14.4318 26.2727C14.4318 24.3864 14.6705 22.7756 15.1477 21.4403C15.6307 20.0994 16.3239 19.0767 17.2273 18.3722C18.1364 17.6619 19.2273 17.3068 20.5 17.3068C21.7727 17.3068 22.8608 17.6619 23.7642 18.3722C24.6733 19.0767 25.3665 20.0994 25.8438 21.4403C26.3267 22.7756 26.5682 24.3864 26.5682 26.2727C26.5682 28.1705 26.3295 29.7898 25.8523 31.1307C25.375 32.4659 24.6847 33.4858 23.7812 34.1903C22.8778 34.8892 21.7841 35.2386 20.5 35.2386ZM20.5 33.3636C21.7727 33.3636 22.7614 32.75 23.4659 31.5227C24.1705 30.2955 24.5227 28.5455 24.5227 26.2727C24.5227 24.7614 24.3608 23.4744 24.0369 22.4119C23.7188 21.3494 23.2585 20.5398 22.6562 19.983C22.0597 19.4261 21.3409 19.1477 20.5 19.1477C19.2386 19.1477 18.2528 19.7699 17.5426 21.0142C16.8324 22.2528 16.4773 24.0057 16.4773 26.2727C16.4773 27.7841 16.6364 29.0682 16.9545 30.125C17.2727 31.1818 17.7301 31.9858 18.3267 32.5369C18.929 33.0881 19.6534 33.3636 20.5 33.3636ZM36.5932 17.5455V35H34.4795V19.7614H34.3773L30.1159 22.5909V20.4432L34.4795 17.5455H36.5932Z" fill="white"/>
<path d="M7 44.66H45V6.66H7V44.66Z" fill="white"/>
</svg>
