<svg width="24" height="24" viewBox="0 0 24 24" fill="none" xmlns="http://www.w3.org/2000/svg">
<g clip-path="url(#clip0_75_1004)">
<path d="M12 24C18.6274 24 24 18.6274 24 12C24 5.37258 18.6274 0 12 0C5.37258 0 0 5.37258 0 12C0 18.6274 5.37258 24 12 24Z" fill="white" fill-opacity="0.3"/>
<path fill-rule="evenodd" clip-rule="evenodd" d="M5.43104 11.873C8.92928 10.3488 11.262 9.34403 12.4292 8.85856C15.7617 7.47245 16.4542 7.23167 16.9055 7.22372C17.0048 7.22197 17.2267 7.24657 17.3705 7.36323C17.4919 7.46174 17.5253 7.59481 17.5413 7.68821C17.5573 7.78161 17.5772 7.99436 17.5614 8.16061C17.3808 10.0581 16.5994 14.6628 16.2018 16.788C16.0336 17.6873 15.7024 17.9888 15.3817 18.0183C14.6849 18.0824 14.1557 17.5577 13.4808 17.1153C12.4246 16.423 11.8279 15.992 10.8028 15.3164C9.61798 14.5357 10.386 14.1066 11.0612 13.4053C11.2379 13.2217 14.3083 10.429 14.3677 10.1756C14.3752 10.144 14.3821 10.0258 14.3119 9.96348C14.2417 9.90112 14.1382 9.92244 14.0635 9.93941C13.9575 9.96345 12.2703 11.0786 9.00179 13.285C8.52287 13.6138 8.08909 13.7741 7.70043 13.7657C7.27197 13.7564 6.44778 13.5234 5.83508 13.3242C5.08358 13.08 4.4863 12.9508 4.53831 12.5359C4.5654 12.3199 4.86298 12.0989 5.43104 11.873Z" fill="white"/>
</g>
<defs>
<clipPath id="clip0_75_1004">
<rect width="24" height="24" fill="white"/>
</clipPath>
</defs>
</svg>
