<svg width="24" height="24" viewBox="0 0 24 24" fill="none" xmlns="http://www.w3.org/2000/svg">
<g clip-path="url(#clip0_75_1012)">
<mask id="mask0_75_1012" style="mask-type:luminance" maskUnits="userSpaceOnUse" x="0" y="0" width="24" height="24">
<path d="M23.8815 0H0.119141V24H23.8815V0Z" fill="white"/>
</mask>
<g mask="url(#mask0_75_1012)">
<path d="M0.119141 11.52C0.119141 6.08942 0.119141 3.37414 1.7895 1.68707C3.45987 0 6.14827 0 11.5251 0H12.4756C17.8524 0 20.5408 0 22.2112 1.68707C23.8815 3.37414 23.8815 6.08942 23.8815 11.52V12.48C23.8815 17.9106 23.8815 20.6259 22.2112 22.3129C20.5408 24 17.8524 24 12.4756 24H11.5251C6.14827 24 3.45987 24 1.7895 22.3129C0.119141 20.6259 0.119141 17.9106 0.119141 12.48V11.52Z" fill="white" fill-opacity="0.3"/>
<path d="M12.7626 17.2898C7.34671 17.2898 4.25763 13.5398 4.12891 7.2998H6.84179C6.93089 11.8798 8.93085 13.8198 10.515 14.2198V7.2998H13.0695V11.2498C14.6339 11.0798 16.2773 9.2798 16.8317 7.2998H19.3863C18.9605 9.73981 17.1783 11.5398 15.911 12.2798C17.1783 12.8798 19.2081 14.4498 19.9804 17.2898H17.1684C16.5645 15.3898 15.0596 13.9198 13.0695 13.7198V17.2898H12.7626Z" fill="white"/>
</g>
</g>
<defs>
<clipPath id="clip0_75_1012">
<rect width="24" height="24" fill="white"/>
</clipPath>
</defs>
</svg>
