<svg width="36" height="36" viewBox="0 0 36 36" fill="none" xmlns="http://www.w3.org/2000/svg">
<rect width="36" height="36" rx="18" fill="white" fill-opacity="0.2"/>
<g clip-path="url(#clip0_429_1416)">
<path d="M8.19843 27.9486C8.0862 27.8863 8.0019 27.7447 8 27.6151C7.99924 27.5631 8.35448 26.5975 8.78942 25.4693L9.58022 23.4181L9.45239 23.1978C9.21725 22.7925 8.74855 21.8084 8.60239 21.4131C8.41625 20.9096 8.18261 19.9771 8.09284 19.3794C8.0057 18.7991 7.99215 17.2963 8.06921 16.759C8.40129 14.4435 9.35944 12.488 10.9331 10.914C12.5052 9.34155 14.4855 8.36813 16.7573 8.0511C17.2455 7.98297 18.7715 7.98297 19.2598 8.0511C22.1853 8.45935 24.6729 9.98986 26.2938 12.3787C27.1526 13.6444 27.6759 15.0037 27.9275 16.6221C28.0151 17.1862 28.0258 18.7247 27.9459 19.262C27.6058 21.5467 26.6179 23.5459 25.0673 25.0875C22.6493 27.4914 19.2087 28.4905 15.8384 27.7674C14.9845 27.5842 13.7034 27.0757 12.9058 26.6034L12.7103 26.4876L10.5988 27.2436C9.43754 27.6594 8.44339 27.9998 8.38963 28C8.33586 28.0002 8.24982 27.977 8.19843 27.9486Z" fill="white" fill-opacity="0.5"/>
<path d="M22.3274 22.3119C22.0434 22.5926 21.7528 22.7717 21.3636 22.906C20.9995 23.0315 20.3489 23.0649 19.9624 22.9778C19.0615 22.7749 17.6822 22.0595 16.5019 21.1833C15.3866 20.3553 14.4264 19.1519 13.627 17.5803C13.0067 16.3608 12.8421 15.583 13.0404 14.8078C13.2583 13.9555 13.9304 13.2519 14.7592 13.0082C14.9098 12.964 15.1331 12.9458 15.5262 12.9458C16.0316 12.9458 16.0901 12.9531 16.1859 13.0285C16.2524 13.0808 16.4661 13.4581 16.7674 14.0551L17.2438 14.9991L17.2424 15.3315C17.2412 15.6287 17.2265 15.695 17.1034 15.9573C17.0276 16.1187 16.8492 16.3949 16.707 16.5712L16.4483 16.8916L16.6318 17.2575C17.1089 18.2089 17.8126 18.9041 18.7864 19.3861L19.1161 19.5493L19.3402 19.347C19.8132 18.9201 20.2841 18.7148 20.7248 18.7436C20.9815 18.7604 21.0571 18.7908 21.937 19.2322C22.4531 19.491 22.9106 19.7418 22.9536 19.7895C23.0226 19.8661 23.0333 19.9417 23.0444 20.4339C23.056 20.9515 23.0495 21.0137 22.9535 21.2998C22.8183 21.7028 22.621 22.0217 22.3274 22.3119Z" fill="white"/>
</g>
<defs>
<clipPath id="clip0_429_1416">
<rect width="20" height="20" fill="white" transform="translate(8 8)"/>
</clipPath>
</defs>
</svg>
